<svg id="visual" viewBox="0 0 900 600" width="900" height="600" xmlns="http://www.w3.org/2000/svg"
    xmlns:xlink="http://www.w3.org/1999/xlink" version="1.1">
    <path
        d="M0 160L21.5 152.5C43 145 86 130 128.8 115.8C171.7 101.7 214.3 88.3 257.2 88C300 87.7 343 100.3 385.8 115.5C428.7 130.7 471.3 148.3 514.2 146.2C557 144 600 122 642.8 127.8C685.7 133.7 728.3 167.3 771.2 178.3C814 189.3 857 177.7 878.5 171.8L900 166L900 0L878.5 0C857 0 814 0 771.2 0C728.3 0 685.7 0 642.8 0C600 0 557 0 514.2 0C471.3 0 428.7 0 385.8 0C343 0 300 0 257.2 0C214.3 0 171.7 0 128.8 0C86 0 43 0 21.5 0L0 0Z"
        fill="rgba(255, 100, 100, 0.8)" stroke-linecap="round" stroke-linejoin="miter"></path>
</svg>