<svg id="visual" viewBox="0 0 900 600" width="900" height="600" xmlns="http://www.w3.org/2000/svg" xmlns:xlink="http://www.w3.org/1999/xlink" version="1.1"><path d="M0 164L15 179C30 194 60 224 90 235.2C120 246.3 150 238.7 180 232.7C210 226.7 240 222.3 270 225C300 227.7 330 237.3 360 232.8C390 228.3 420 209.7 450 207.8C480 206 510 221 540 224C570 227 600 218 630 218.3C660 218.7 690 228.3 720 237.3C750 246.3 780 254.7 810 261.7C840 268.7 870 274.3 885 277.2L900 280L900 0L885 0C870 0 840 0 810 0C780 0 750 0 720 0C690 0 660 0 630 0C600 0 570 0 540 0C510 0 480 0 450 0C420 0 390 0 360 0C330 0 300 0 270 0C240 0 210 0 180 0C150 0 120 0 90 0C60 0 30 0 15 0L0 0Z" fill="#FF6464" stroke-linecap="round" stroke-linejoin="miter"></path></svg>